# xmcd
#
# Track frame offsets:
#	150
#	15103
#	26848
#	43640
#	59045
#	76163
#	91925
#	107448
#	125725
#	140770
#	153948
#	165435
#	182825
#	197048
#
# Disc length: 2814 seconds
#
# Revision: 6
# Processed by: cddbd v1.5.2PL0 Copyright (c) Steve Scherf et al.
# Submitted via: audiograbber 1.83.01
#
DISCID=b00afc0e
DTITLE=Martina McBride - The Way That I Am
DYEAR=1994
DGENRE=Country
TTITLE0=Heart Trouble
TTITLE1=My Baby Loves Me
TTITLE2=That Wasn't Me
TTITLE3=Independence Day
TTITLE4=Where I Used To Have A Heart
TTITLE5=Goin' To Work
TTITLE6=She Ain't Seen Nothing Yet
TTITLE7=Life #9
TTITLE8=Strangers
TTITLE9=Ashes
TTITLE10=The Time Has Come [bonus track]
TTITLE11=That's Me [bonus track]
TTITLE12=Cheap Whiskey [bonus track]
TTITLE13=When You Are Old [bonus track]
EXTD=
EXTT0=
EXTT1=
EXTT2=
EXTT3=
EXTT4=
EXTT5=
EXTT6=
EXTT7=
EXTT8=
EXTT9=
EXTT10=
EXTT11=
EXTT12=
EXTT13=
PLAYORDER=
